<?xml version="1.0" encoding="UTF-8" standalone="no"?>
<!DOCTYPE svg PUBLIC "-//W3C//DTD SVG 1.1//EN" "http://www.w3.org/Graphics/SVG/1.1/DTD/svg11.dtd">
<svg width="100%" height="100%" viewBox="0 0 4273 724" version="1.1" xmlns="http://www.w3.org/2000/svg" xmlns:xlink="http://www.w3.org/1999/xlink" xml:space="preserve" xmlns:serif="http://www.serif.com/" style="fill-rule:evenodd;clip-rule:evenodd;stroke-linejoin:round;stroke-miterlimit:2;">
    <g transform="matrix(1,0,0,1,-3638.29,-519.923)">
        <g transform="matrix(29.6103,0,0,29.2272,-14919.1,-1417.52)">
            <g transform="matrix(0.561679,0,0,0.569043,644.751,-119.587)">
                <path d="M53.593,350.625L57.493,331.722L61.59,331.722L55.303,361.779L45.926,361.779L40.199,342.926L36.302,361.779L32.206,361.779L38.492,331.722L47.82,331.722L53.593,350.625ZM75.792,338.434C82.356,338.434 86.187,343.074 84.79,349.095L84.311,351.069L70.887,351.069C70.714,352.155 70.584,353.339 70.504,354.524C70.319,357.238 70.92,358.571 72.154,358.571C73.585,358.571 74.795,356.745 75.668,353.339L83.663,353.339C82.178,359.213 77.66,362.519 70.849,362.519C64.137,362.519 60.526,358.275 60.979,351.612C61.495,344.011 67.55,338.434 75.792,338.434ZM75.376,342.383C73.944,342.383 72.51,344.604 71.591,347.96L76.724,347.96C77.295,343.913 76.906,342.383 75.376,342.383ZM112.389,351.859L118.14,339.125L122.088,339.125L111.468,361.779L102.486,361.779L102.903,349.095L97.008,361.779L88.025,361.779L88.231,339.125L98.25,339.125L97.852,352.254L103.926,339.125L112.514,339.125L112.389,351.859ZM129.926,362.519C123.016,362.519 119.131,359.41 120.095,354.672L127.843,354.672C127.291,356.992 128.371,358.522 130.494,358.522C131.974,358.522 132.91,357.831 132.987,356.695C133.248,352.846 121.464,354.129 121.994,346.331C122.319,341.544 126.873,338.434 133.585,338.434C140.15,338.434 143.893,341.445 142.94,346.035L135.191,346.035C135.638,343.814 134.749,342.383 132.774,342.383C131.442,342.383 130.506,343.074 130.433,344.16C130.165,348.108 141.923,346.479 141.366,354.672C141.038,359.509 136.687,362.519 129.926,362.519ZM164.248,345.492C168.301,346.134 170.266,348.453 170.004,352.303C169.602,358.225 164.228,361.779 155.591,361.779L143.252,361.779L149.835,331.722L162.469,331.722C169.231,331.722 172.581,333.993 172.282,338.385C172.028,342.136 169.192,344.653 164.248,345.492ZM154.316,358.028L155.204,358.028C158.313,358.028 160.346,355.708 160.611,351.809C160.802,348.996 159.679,347.368 157.508,347.368L156.669,347.368L154.316,358.028ZM160.293,335.424L159.257,335.424L157.46,343.715L158.249,343.715C161.013,343.715 162.868,341.84 163.066,338.928C163.223,336.608 162.267,335.424 160.293,335.424ZM183.376,362.519C176.171,362.519 171.869,358.275 172.318,351.661C172.835,344.061 179.337,338.434 187.579,338.434C194.834,338.434 199.277,342.778 198.834,349.292C198.321,356.844 191.717,362.519 183.376,362.519ZM183.842,358.571C185.915,358.571 188.206,352.451 188.608,346.529C188.826,343.321 188.396,342.383 187.311,342.383C185.238,342.383 182.95,348.453 182.544,354.425C182.326,357.633 182.806,358.571 183.842,358.571ZM220.106,339.125L224.794,339.125L216.53,348.898L220.837,361.779L210.078,361.779L207.787,354.82L202.033,361.779L197.295,361.779L206.554,351.168L202.536,339.125L213.245,339.125L215.301,345.196L220.106,339.125ZM-4.298,370.165C-4.298,354.819 -16.757,342.36 -32.103,342.36L-32.103,331.091C-32.103,328.637 -30.114,326.647 -27.659,326.647L15.73,326.647C18.184,326.647 20.174,328.637 20.174,331.091L20.174,365.721C20.174,368.175 18.184,370.165 15.73,370.165L-4.298,370.165ZM-7.631,370.165L-12.529,370.165C-12.529,359.362 -21.3,350.591 -32.103,350.591L-32.103,345.693C-18.597,345.693 -7.631,356.658 -7.631,370.165ZM-15.863,370.165L-20.872,370.165C-20.872,363.966 -25.905,358.934 -32.103,358.934L-32.103,353.924C-23.14,353.924 -15.863,361.201 -15.863,370.165ZM-24.205,370.165L-32.103,370.165L-32.103,362.267C-27.744,362.267 -24.205,365.806 -24.205,370.165Z"/>
            </g>
        </g>
    </g>
</svg>
